<svg xmlns="http://www.w3.org/2000/svg" width="13.257" height="16" viewBox="0 0 13.257 16"><defs><style>.a{fill:#7a35ff;fill-rule:evenodd;}</style></defs><g transform="translate(-4.5 -1.5)"><path class="a" d="M18.3,12.354a2.946,2.946,0,1,1-2.946-2.946A2.946,2.946,0,0,1,18.3,12.354Zm-1.473,0a1.473,1.473,0,1,1-1.473-1.473,1.473,1.473,0,0,1,1.473,1.473Z" transform="translate(-4.025 -4.025)"/><path class="a" d="M6.558,12.929a6.629,6.629,0,1,1,9.371-.23l-4.571,4.8-4.8-4.571Zm8.3-1.246-3.555,3.734L7.574,11.863a5.156,5.156,0,1,1,7.289-.179Z" transform="translate(0 0)"/></g></svg>